<svg height="512pt" viewBox="0 0 512 512" width="512pt" xmlns="http://www.w3.org/2000/svg"><path d="m303.960938 438.558594-9.253907 1c-5.847656-6.035156-11.902343-3.824219-18.140625-9.371094-5.457031 4.941406-10.785156 10.050781-15.9375 15.371094l-4.628906 4.773437-4.628906-4.773437c-53.164063-54.875-123.105469-89.667969-198.039063-99.410156v131.851562h178.667969c0 13.253906 10.753906 24 24.011719 24 10.230469 0 18.960937-6.398438 22.421875-15.40625.597656-2.097656.925781-4.304688.925781-6.59375h.578125c.054688-.660156.085938-1.324219.085938-2h221.976562v-129.851562c-74.929688 9.742187-144.875 35.535156-198.039062 90.410156zm0 0" fill="#ffc66c"/><path d="m502 343.332031c-90.976562 0-178.066406 36.886719-241.371094 102.226563l-4.628906 4.773437 76.375-24.484375c53.425781-17.128906 109.1875-25.847656 165.292969-25.847656 0 0 1.6875.78125 4.332031 1.8125 0-28.734375 0-58.480469 0-58.480469zm0 0" fill="#fff"/><path d="m10 343.332031v56.050781l4.332031.617188c56.105469 0 111.867188 8.71875 165.292969 25.847656l76.375 24.484375-4.628906-4.773437c-63.304688-65.339844-150.394532-102.226563-241.371094-102.226563zm0 0" fill="#fff"/><path d="m219.128906 229.625h107v60.5h-107zm0 0" fill="#6a80ff"/><path d="m170.636719 214.75 85.59375 35.664062 126.386719-52.664062-85.59375-35.664062zm0 0" fill="#6a80ff"/><path d="m480.160156 14.589844c-15.359375 5.773437-26.292968 20.59375-26.292968 37.972656 0 15.640625 8.859374 29.203125 21.828124 35.972656 15.359376-5.773437 26.292969-20.59375 26.292969-37.972656 0-15.640625-8.859375-29.207031-21.828125-35.972656zm0 0" fill="#9bf"/><path d="m97.113281 11.601562c-34.269531 5.53125-60.445312 35.234376-60.445312 71.066407 0 34.578125 24.378906 63.453125 56.886719 70.398437 34.269531-5.53125 60.445312-35.238281 60.445312-71.066406 0-34.578125-24.382812-63.453125-56.886719-70.398438zm0 0" fill="#36d28f"/><path d="m109.667969 82c0-39.765625-12.386719-72-27.667969-72s-27.667969 32.234375-27.667969 72 12.386719 72 27.667969 72 27.667969-32.234375 27.667969-72zm0 0" fill="#b2f0bf"/><path d="m502 333.332031c-46.621094 0-92.03125 9.222657-134.964844 27.402344-41.808594 17.707031-79.148437 43.015625-111.035156 75.253906-31.886719-32.238281-69.226562-57.546875-111.035156-75.253906-42.933594-18.179687-88.34375-27.402344-134.964844-27.402344-5.523438 0-10 4.480469-10 10v134.667969c0 5.523438 4.476562 10 10 10h213.503906c4.28125 13.882812 17.234375 24 32.511719 24 15.273437 0 28.226563-10.117188 32.511719-24h213.472656c5.523438 0 10-4.476562 10-10v-134.667969c0-5.519531-4.476562-10-10-10zm-10 20.15625v36.566407c-55.289062.566406-109.992188 9.378906-162.675781 26.269531l-33.921875 10.875c55.34375-45.191407 124.878906-71.46875 196.597656-73.710938zm-275.402344 73.710938-33.917968-10.875c-52.6875-16.890625-107.390626-25.703125-162.679688-26.269531v-36.566407c71.71875 2.242188 141.253906 28.519531 196.597656 73.710938zm-196.597656-17.144531c53.214844.566406 105.863281 9.058593 156.570312 25.316406l61.527344 19.722656-12.90625 12.90625h-205.191406zm236.015625 81.945312c-7.253906 0-13.238281-5.535156-13.945313-12.597656l13.929688-13.925782 13.953125 13.953126c-.71875 7.050781-6.695313 12.570312-13.9375 12.570312zm30.792969-24-12.90625-12.90625 61.527344-19.722656c50.707031-16.257813 103.355468-24.75 156.570312-25.316406v57.945312zm0 0"/><path d="m119.636719 197.75c0 4.035156 2.429687 7.679688 6.15625 9.230469l50.476562 21.035156c-.085937.523437-.140625 1.058594-.140625 1.609375v60.5c0 5.523438 4.476563 10 10 10h140c5.523438 0 10-4.476562 10-10v-60.5c0-.550781-.058594-1.085938-.140625-1.609375l36.628907-15.265625v58.957031c0 5.523438 4.476562 10 10 10 5.523437 0 10-4.476562 10-10v-73.957031c0-4.035156-2.425782-7.679688-6.152344-9.230469l-126.488282-52.707031c-2.460937-1.027344-5.234374-1.027344-7.695312 0l-126.488281 52.707031c-3.726563 1.550781-6.15625 5.195313-6.15625 9.230469zm196.492187 82.375h-120v-43.835938l56.152344 23.398438c1.230469.511719 2.539062.769531 3.847656.769531 1.304688 0 2.613282-.257812 3.84375-.769531l56.15625-23.398438zm-60-124.25 76.492188 31.875h-76.492188c-5.523437 0-10 4.476562-10 10s4.476563 10 10 10h76.492188l-76.492188 31.875-100.492187-41.875zm0 0"/><path d="m382.621094 311.710938c-2.640625 0-5.210938 1.070312-7.070313 2.929687-1.871093 1.859375-2.929687 4.4375-2.929687 7.070313 0 2.628906 1.058594 5.210937 2.929687 7.070312 1.859375 1.859375 4.429688 2.929688 7.070313 2.929688 2.628906 0 5.199218-1.070313 7.070312-2.929688 1.859375-1.859375 2.929688-4.441406 2.929688-7.070312 0-2.640626-1.070313-5.210938-2.929688-7.070313-1.863281-1.859375-4.441406-2.929687-7.070312-2.929687zm0 0"/><path d="m404.875 117.535156c2.558594 0 5.117188-.976562 7.070312-2.929687l21.78125-21.78125c7.960938 5.238281 17.476563 8.296875 27.703126 8.296875 27.878906 0 50.558593-22.679688 50.558593-50.558594s-22.679687-50.5625-50.5625-50.5625c-27.878906 0-50.558593 22.683594-50.558593 50.5625 0 10.4375 3.179687 20.148438 8.621093 28.214844l-21.6875 21.6875c-3.902343 3.902344-3.902343 10.234375 0 14.140625 1.953125 1.953125 4.511719 2.929687 7.074219 2.929687zm56.550781-97.535156c16.851563 0 30.5625 13.710938 30.5625 30.5625s-13.710937 30.558594-30.5625 30.558594c-16.851562 0-30.558593-13.707032-30.558593-30.558594s13.707031-30.5625 30.558593-30.5625zm0 0"/><path d="m82 164c45.214844 0 82-36.785156 82-82s-36.785156-82-82-82-82 36.785156-82 82 36.785156 82 82 82zm-61.183594-72h23.777344c.855469 16.382812 3.804688 32.289062 8.773438 44.964844-16.980469-8.882813-29.359376-25.394532-32.550782-44.964844zm61.183594-72c1.4375 0 6.007812 3.695312 10.230469 14.675781 3.832031 9.972657 6.335937 23.203125 7.148437 37.324219h-34.757812c.8125-14.121094 3.316406-27.351562 7.152344-37.324219 4.21875-10.980469 8.789062-14.675781 10.226562-14.675781zm17.378906 72c-.8125 14.121094-3.316406 27.351562-7.152344 37.324219-4.21875 10.980469-8.789062 14.675781-10.226562 14.675781s-6.007812-3.695312-10.230469-14.675781c-3.832031-9.972657-6.335937-23.203125-7.148437-37.324219zm11.253906 44.964844c4.96875-12.675782 7.917969-28.582032 8.773438-44.964844h23.777344c-3.191406 19.570312-15.570313 36.082031-32.550782 44.964844zm32.550782-64.964844h-23.777344c-.855469-16.382812-3.804688-32.289062-8.773438-44.964844 16.980469 8.882813 29.359376 25.394532 32.550782 44.964844zm-89.816406-44.964844c-4.96875 12.675782-7.917969 28.582032-8.773438 44.964844h-23.777344c3.191406-19.570312 15.570313-36.082031 32.550782-44.964844zm0 0"/><path d="m82 277c-2.628906 0-5.210938 1.070312-7.070312 2.929688-1.859376 1.859374-2.929688 4.441406-2.929688 7.070312s1.070312 5.210938 2.929688 7.070312c1.859374 1.859376 4.441406 2.929688 7.070312 2.929688s5.210938-1.070312 7.070312-2.929688c1.859376-1.859374 2.929688-4.441406 2.929688-7.070312s-1.070312-5.210938-2.929688-7.070312c-1.859374-1.859376-4.441406-2.929688-7.070312-2.929688zm0 0"/><path d="m92 202.710938c0-5.523438-4.476562-10-10-10s-10 4.476562-10 10v48.375c0 5.519531 4.476562 10 10 10s10-4.480469 10-10zm0 0"/><path d="m451.554688 143.710938v74.289062c0 5.523438 4.476562 10 10 10 5.523437 0 10-4.476562 10-10v-74.289062c0-5.523438-4.476563-10-10-10-5.523438 0-10 4.476562-10 10zm0 0"/></svg>